<?xml version="1.0" encoding="utf-8"?>
<!-- Generator: Adobe Illustrator 28.2.0, SVG Export Plug-In . SVG Version: 6.00 Build 0)  -->
<svg version="1.1" id="Layer_1" xmlns="http://www.w3.org/2000/svg" xmlns:xlink="http://www.w3.org/1999/xlink" x="0px" y="0px"
	 viewBox="0 0 183.7 56.4" style="enable-background:new 0 0 183.7 56.4;" xml:space="preserve">
<g>
	<g>
		<path d="M0.4,53.3c0.2-4.7,0.2-11.2,0.2-17.8C0.6,14.2,0,3.7,0,3.2C0,1.3,1.4,0,3.2,0s3.1,1.3,3.2,3C6.8,11.1,7,23.8,7,35.5
			C7,41,7,46.1,6.8,50.1c17.5-0.5,25.2-2.9,26.5-2.9c1.8,0,3.2,1.3,3.2,3.2c0,1.5-1,2.8-2.5,3.1c-8.9,2-19.3,3.1-30.3,3.1
			C1.8,56.5,0.4,55.1,0.4,53.3z"/>
		<path d="M43.4,36.5C43.4,17.6,51.8,0,64.7,0s20.4,7.9,20.4,20.7c0,21.1-9.1,35.9-22.5,35.9C50.7,56.6,43.4,49,43.4,36.5z
			 M62.6,50.3c9.4,0,16.2-12,16.2-29.6c0-9.2-5-14.4-14.1-14.4c-9.1,0-14.9,14.8-14.9,30.2C49.8,45.4,54.3,50.3,62.6,50.3z"/>
		<path d="M91.7,34.4c0-18.6,12.6-34.3,24-34.3c3.8,0,10.1,1.8,14.2,4c1,0.5,1.7,1.6,1.7,2.8c0,1.7-1.3,3.2-3.2,3.2
			c-0.6,0-1-0.2-1.5-0.4c-3.4-1.8-8.5-3.3-11.3-3.3c-7.8,0-17.7,12.9-17.7,28c0,9.7,5.1,15.7,13.1,15.7c8.4,0,14.6-7,15.6-17.5
			c-9.8,1.2-14,2.2-15,2.2c-1.7,0-3.2-1.4-3.2-3.2c0-1.6,1.2-2.9,2.7-3.2c6.7-1.2,20.5-3,21.6-3c1.8,0,3.2,1.3,3.2,3.2
			c0,1.7-1.3,3-2.8,3.2h-0.1c-0.8,14.4-9.7,24.6-22,24.6C99.6,56.4,91.7,47.6,91.7,34.4L91.7,34.4z"/>
		<path d="M141.4,36.5c0-18.9,8.4-36.5,21.2-36.5S183,7.9,183,20.7c0,21.1-9.1,35.9-22.5,35.9C148.7,56.6,141.4,49,141.4,36.5
			L141.4,36.5z M160.5,50.3c9.4,0,16.2-12,16.2-29.6c0-9.2-5-14.4-14.1-14.4s-14.9,14.8-14.9,30.2C147.7,45.4,152.2,50.3,160.5,50.3
			L160.5,50.3z"/>
	</g>
</g>
</svg>
